<svg width="113px" height="155px" viewBox="0 0 113 155" version="1.1" xmlns="http://www.w3.org/2000/svg" xmlns:xlink="http://www.w3.org/1999/xlink">
    <!-- Generator: Sketch 44.1 (41455) - http://www.bohemiancoding.com/sketch -->
    <desc>Created with Sketch.</desc>
    <defs></defs>
    <g id="Page-1" stroke="none" stroke-width="1" fill="none" fill-rule="evenodd">
        <g id="SWG-Shield-Logo-(2)" fill="#A0252C">
            <path d="M94.812,64.994 C94.812,66.676 93.624,67.806 91.855,67.806 L89.68,67.806 C87.91,67.806 86.721,66.676 86.721,64.994 L86.721,60.649 C86.721,58.83 86.317,57.099 85.52,55.501 C84.711,53.866 83.619,52.436 82.275,51.251 C80.92,50.058 79.284,49.09 77.413,48.375 C75.621,47.685 73.553,47.321 71.432,47.321 C69.314,47.321 67.246,47.684 65.454,48.371 C63.582,49.087 61.944,50.051 60.589,51.24 C59.25,52.415 58.158,53.84 57.345,55.472 C56.589,56.989 56.2,58.626 56.162,60.338 L56.162,81.481 L56.148,81.471 L55.82,81.232 C54.88,80.549 54.012,79.92 53.146,79.291 C52.837,79.067 52.534,78.847 52.234,78.63 C51.158,77.849 50.144,77.113 49.189,76.421 C49.143,76.387 49.097,76.354 49.051,76.32 C47.116,74.917 45.426,73.693 43.99,72.655 L43.496,72.297 C41.708,71.005 40.233,69.928 39.002,69.02 C38.131,68.376 37.364,67.806 36.771,67.355 C35.358,66.283 34.512,65.635 34.141,65.334 C34.132,65.327 34.129,65.323 34.12,65.316 C34.002,65.221 33.904,65.142 33.796,65.037 L32.911,64.153 L32.909,64.156 C32.22,63.397 31.67,62.581 31.281,61.714 C30.738,60.513 30.464,59.29 30.464,58.081 C30.464,56.645 30.787,55.288 31.424,54.048 C32.094,52.744 33.025,51.569 34.188,50.558 C35.361,49.541 36.755,48.735 38.331,48.162 C39.896,47.596 41.66,47.297 43.435,47.297 C45.21,47.297 46.973,47.596 48.531,48.161 C49.578,48.542 50.539,49.091 51.472,49.751 L51.472,49.75 C51.93,49.083 52.424,48.442 52.96,47.829 C53.01,47.77 53.058,47.71 53.109,47.652 C53.669,47.025 54.256,46.419 54.895,45.854 C57.007,43.988 59.521,42.505 62.367,41.447 C65.124,40.428 68.27,39.89 71.463,39.89 C74.713,39.89 77.867,40.445 80.583,41.497 C83.381,42.58 85.868,44.078 87.977,45.946 C90.096,47.825 91.78,50.041 92.983,52.533 C94.197,55.047 94.812,57.778 94.812,60.649 L94.812,64.994 Z M94.812,93.89 C94.812,96.764 94.196,99.494 92.983,102.006 C91.779,104.5 90.093,106.714 87.975,108.585 C85.868,110.447 83.376,111.928 80.568,112.987 C77.757,114.046 74.704,114.584 71.493,114.584 C68.285,114.584 65.216,114.048 62.37,112.992 C59.519,111.933 57.004,110.451 54.895,108.585 C54.242,108.008 53.645,107.388 53.075,106.747 C53.012,106.676 52.953,106.602 52.892,106.53 C52.348,105.901 51.845,105.243 51.383,104.558 C50.474,105.189 49.541,105.719 48.533,106.085 C46.981,106.649 45.22,106.947 43.437,106.947 C41.655,106.947 39.891,106.649 38.334,106.084 C36.755,105.51 35.361,104.703 34.19,103.685 C33.025,102.675 32.096,101.501 31.424,100.197 C30.787,98.959 30.464,97.602 30.464,96.164 C30.464,94.349 29.226,93.031 27.518,93.031 L25.656,93.031 C25.114,93.031 24.312,93.198 23.575,93.989 C23.01,94.59 22.711,95.342 22.711,96.164 C22.711,98.812 23.284,101.322 24.413,103.626 C25.516,105.885 27.017,107.881 28.871,109.557 C30.704,111.222 32.901,112.561 35.402,113.54 C37.896,114.515 40.615,115.009 43.48,115.009 C46.272,115.009 48.952,114.529 51.447,113.581 C53.164,112.927 54.733,112.07 56.162,111.055 L56.162,140.879 C23.767,118.766 12.681,104.136 12.681,84.28 L12.681,33.945 C28.792,32.226 41.688,26.723 56.162,15.486 L56.162,43.211 C54.735,42.181 53.165,41.318 51.447,40.663 C48.997,39.733 46.226,39.242 43.435,39.242 C40.637,39.242 37.867,39.733 35.42,40.661 C32.919,41.613 30.714,42.956 28.861,44.654 C27.014,46.348 25.517,48.349 24.415,50.6 C23.284,52.905 22.711,55.414 22.711,58.056 C22.711,60.483 23.23,62.829 24.253,65.028 C25.076,66.802 26.175,68.458 27.496,69.981 L27.465,70.015 L28.288,70.871 C28.494,71.084 28.685,71.27 28.864,71.43 C29.043,71.59 29.211,71.723 29.369,71.833 C29.485,71.914 29.595,72.019 29.918,72.312 L48.057,85.345 L48.057,85.344 L52.028,88.198 C53.401,89.187 54.451,90.396 55.15,91.792 C55.392,92.276 55.589,92.747 55.756,93.23 C55.85,93.501 55.917,93.802 55.992,94.087 C56.047,94.293 56.116,94.484 56.162,94.703 L56.162,94.729 C56.175,94.788 56.195,94.836 56.207,94.897 C56.334,96.321 56.707,97.689 57.345,98.968 C58.161,100.604 59.251,102.026 60.587,103.195 C61.939,104.385 63.577,105.352 65.453,106.07 C67.243,106.756 69.311,107.117 71.434,107.117 C73.555,107.117 75.624,106.755 77.417,106.069 C79.295,105.351 80.929,104.386 82.277,103.202 C83.621,102.023 84.713,100.599 85.52,98.971 C86.317,97.377 86.721,95.65 86.721,93.838 L86.721,80.939 L71.493,80.939 C69.654,80.939 68.419,79.81 68.419,78.129 L68.419,76.309 C68.419,74.628 69.654,73.499 71.493,73.499 L90.712,73.499 C93.163,73.499 94.812,74.994 94.812,77.22 L94.812,93.89 Z M109.155,21.982 C90.1,21.549 76.998,16.944 58.543,1.172 C57.881,0.606 57.02,0.321 56.162,0.321 C55.302,0.321 54.444,0.604 53.782,1.171 C35.33,16.944 22.229,21.549 3.172,21.982 C1.421,22.022 0,23.421 0,25.153 C0,34.202 0,61.194 0,84.28 C0,113.025 19.448,131.626 53.527,154.274 C54.252,154.758 55.208,155 56.162,155 C57.118,155 58.073,154.758 58.799,154.274 C92.875,131.626 112.325,113.025 112.325,84.28 C112.325,61.194 112.325,34.202 112.325,25.153 C112.325,23.421 110.906,22.022 109.155,21.982 L109.155,21.982 Z" id="Fill-1"></path>
        </g>
    </g>
</svg>
